{"title":"The Killing Room 2009 DVDRip Xvid BigPerm LKRG","uid":6958535,"size":770311625,"categoryP":"video","categoryS":"movies","magnet":"?xt=urn:btih:6d19825d209ce92eecab245152ad4eb51f871ece&amp;dn=The+Killing+Room+2009+DVDRip+Xvid+BigPerm+LKRG&amp;tr=udp%3A%2F%2Ftracker.openbittorrent.com%3A80&amp;tr=udp%3A%2F%2Fopen.demonii.com%3A1337&amp;tr=udp%3A%2F%2Ftracker.coppersurfer.tk%3A6969&amp;tr=udp%3A%2F%2Fexodus.desync.com%3A6969","seeders":11,"leechers":0,"uploader":".BONE.","files":2,"time":1326678931,"description":"PLOT\n\nFour individuals sign up for a psychological research study only to discover that they are now\nsubjects of a brutal, classified government program.\n\nEncoded By .......: BigPerm\nRuntime ..........: 1h 33mn\nFile Size ........: 735 MB\nResolution .......: 704 x 396 &lt;a href=&quot;\nhttp://www.imdb.com/title/tt1119191/&quot; rel=&quot;nofollow&quot; target=&quot;_NEW&quot;&gt;\nhttp://www.imdb.com/title/tt1119191/&lt;/a&gt;\nGenre ............: Drama,Horror,Thriller\nLanguage .........: English\nSubtitles ........: None\nVideo\nID : 0\nFormat : MPEG-4 Visual\nFormat profile : Advanced Simple@L5\nFormat settings, BVOP : Yes\nFormat settings, QPel : No\nFormat settings, GMC : No warppoints\nFormat settings, Matrix : Default (H.263)\nCodec ID : XVID\nCodec ID/Hint : XviD\nDuration : 1h 33mn\nBit rate : 651 Kbps\nWidth : 704 pixels\nHeight : 396 pixels\nDisplay aspect ratio : 16:9\nFrame rate : 23.976 fps\nColor space : YUV\nChroma subsampling : 4:2:0\nBit depth : 8 bits\nScan type : Progressive\nCompression mode : Lossy\nBits/(Pixel*Frame) : 0.097\nStream size : 433 MiB (59%)\nWriting library : XviD 1.2.1 (UTC 2008-12-04)\nAudio\nID : 1\nFormat : AC-3\nFormat/Info : Audio Coding 3\nMode extension : CM (complete main)\nCodec ID : 2000\nDuration : 1h 33mn\nBit rate mode : Constant\nBit rate : 448 Kbps\nChannel(s) : 6 channels\nChannel positions : Front: L C R, Side: L R, LFE\nSampling rate : 48.0 KHz\nBit depth : 16 bits\nCompression mode : Lossy\nVideo delay : 42ms\nStream size : 298 MiB (41%)\nAlignment : Split accross interleaves\nInterleave, duration : 500 ms (11.99 video frames)\nInterleave, preload duration : 500 ms","torrent":{"xt":"urn:btih:6d19825d209ce92eecab245152ad4eb51f871ece","amp;dn":"The+Killing+Room+2009+DVDRip+Xvid+BigPerm+LKRG","amp;tr":["udp%3A%2F%2Ftracker.openbittorrent.com%3A80","udp%3A%2F%2Fopen.demonii.com%3A1337","udp%3A%2F%2Ftracker.coppersurfer.tk%3A6969","udp%3A%2F%2Fexodus.desync.com%3A6969"],"infoHash":"6d19825d209ce92eecab245152ad4eb51f871ece","infoHashBuffer":{"type":"Buffer","data":[109,25,130,93,32,156,233,46,236,171,36,81,82,173,78,181,31,135,30,206]},"announce":[],"urlList":[]}}